<?xml version="1.0" encoding="UTF-8" standalone="no"?>
<svg
   xmlns:dc="http://purl.org/dc/elements/1.1/"
   xmlns:cc="http://creativecommons.org/ns#"
   xmlns:rdf="http://www.w3.org/1999/02/22-rdf-syntax-ns#"
   xmlns:svg="http://www.w3.org/2000/svg"
   xmlns="http://www.w3.org/2000/svg"
   xmlns:sodipodi="http://sodipodi.sourceforge.net/DTD/sodipodi-0.dtd"
   xmlns:inkscape="http://www.inkscape.org/namespaces/inkscape"
   inkscape:version="1.0 (4035a4fb49, 2020-05-01)"
   sodipodi:docname="logo.svg"
   id="svg1500"
   version="1.1"
   viewBox="0 0 165 32.86">
  <metadata
     id="metadata1506">
    <rdf:RDF>
      <cc:Work
         rdf:about="">
        <dc:format>image/svg+xml</dc:format>
        <dc:type
           rdf:resource="http://purl.org/dc/dcmitype/StillImage" />
      </cc:Work>
    </rdf:RDF>
  </metadata>
  <defs
     id="defs1504">
    <clipPath
       id="clipPath2095"
       clipPathUnits="userSpaceOnUse">
      <g
         id="use2097"
         inkscape:label="Clip">
        <path
           style="fill:#0d0909;fill-opacity:1;fill-rule:evenodd"
           d="m 51.12,28.84 c 0.14,0.39 0.29,0.8 0.44,1.24 v -1.56 h -3.33 v 0.33 H 46.66 V 20.72 H 48 c 0.14,-0.42 0.25,-0.76 0.33,-1 l 2,0.06 c -0.12,0.24 -0.28,0.57 -0.49,1 h 2.72 v 4.62 h -4.33 v 0.44 h 5.21 v 1.14 h -5.21 v 0.44 h 4.9 C 53.07,28.86 53,30 53,30.83 c -0.14,1.32 -0.66,2 -1.55,2 H 49.93 C 49.82,32.25 49.71,31.77 49.6,31.38 h 1.3 c 0.47,0 0.58,-0.28 0.62,-0.85 l -0.64,0.17 c -0.15,-0.61 -0.33,-1.18 -0.51,-1.72 l 0.74,-0.16 z m -5.34,3.4 1.26,0.18 c 0.14,-0.94 0.28,-2 0.43,-3.3 l -1,-0.12 c 0,-0.39 -0.09,-0.86 -0.13,-1.42 l -0.91,0.33 V 23 h 1 V 21.51 H 43.09 V 23 h 0.84 v 5.41 l -1.26,0.44 0.53,1.6 c 0.95,-0.39 2,-0.8 3.13,-1.21 -0.17,1.06 -0.35,2 -0.56,3 z m -4.53,-5.36 1.45,0.61 q -0.46,3 -0.78,5.3 l -1.55,-0.54 q 0.49,-2.34 0.88,-5.36 z m 0.09,-3.5 c 0.8,0.76 1.36,1.31 1.68,1.67 l -1.3,1.2 Q 41.16,25.56 40.2,24.53 Z m 0.17,-3.54 c 0.67,0.64 1.17,1.16 1.53,1.56 l -1.29,1.11 c -0.24,-0.3 -0.71,-0.85 -1.39,-1.65 l 1.15,-1 z m 7.35,9.27 h -1 v 2.9 L 49,32 c 0,-0.83 -0.08,-1.8 -0.15,-2.9 z M 51,24.21 v -0.74 h -2.77 v 0.74 z m 0,-2.37 h -2.77 v 0.74 H 51 Z m -1.8,7.28 q 0.13,0.85 0.28,2 l 0.93,-0.13 A 20.27,20.27 0 0 0 50,29 l -0.83,0.11 z m 15.15,-2.85 h 1.2 l 0.21,-2.12 -0.62,0.65 c -0.29,-0.4 -0.65,-0.87 -1.1,-1.39 a 13.54,13.54 0 0 0 2.68,-3.67 l 1.85,0.23 c -0.12,0.26 -0.25,0.52 -0.39,0.77 h 6.06 v 1.42 h -6.9 c -0.21,0.3 -0.42,0.6 -0.65,0.89 h 6.85 l -0.05,3.22 h 1.06 v 1.37 h -1.1 v 1.81 h 1 v 1.36 h -1 a 2.08,2.08 0 0 1 -0.43,1.4 1.81,1.81 0 0 1 -1.1,0.46 c -0.48,0.05 -1.44,0.09 -2.87,0.11 -0.12,-0.47 -0.25,-0.93 -0.39,-1.4 h 2 a 2.65,2.65 0 0 0 0.7,-0.08 c 0.2,-0.05 0.31,-0.24 0.32,-0.54 h -6.55 l 0.31,-3.17 h -1.08 v -1.32 z m 6.46,-0.85 -0.86,0.85 H 71.7 V 24.4 h -2.38 l 1.5,1 z m -2.69,-0.27 0.81,-0.76 h -1.44 l -0.19,1.87 h 2.26 z m 0,3.25 0.84,-0.77 H 67.17 L 67,29.45 h 2.47 c -0.47,-0.37 -0.94,-0.72 -1.38,-1 z m 2.71,0.25 -0.81,0.79 h 1.66 v -1.81 h -2.41 l 1.52,1 z M 62.91,19.76 61.73,21 q 1.13,0.92 2,1.82 L 65,21.47 c -0.73,-0.63 -1.45,-1.19 -2.13,-1.7 z m -0.41,3.53 -1.08,1.26 Q 63,26 63.36,26.4 l 1.2,-1.4 c -0.72,-0.63 -1.42,-1.19 -2.1,-1.67 z m 0.46,4 c -0.39,1.87 -0.82,3.53 -1.27,5 0.59,0.16 1.17,0.34 1.75,0.54 q 0.63,-2.67 1.23,-4.91 A 15.92,15.92 0 0 1 62.96,27.3 Z m 24.66,1 4.31,-0.39 v -8.13 h 1.87 v 7.91 l 1.81,-0.17 0.15,1.68 -2,0.18 v 3.43 h -1.87 v -3.25 l -4.08,0.37 -0.23,-1.67 z m -5.1,0.4 q 0.38,1.25 0.61,2.12 a 17,17 0 0 0 1.4,-2.44 v 4.48 h 1.72 v -5.76 c 0.33,0.35 0.71,0.78 1.14,1.29 l 1.11,-1 c -0.44,-0.46 -1,-1 -1.61,-1.54 l -0.64,0.6 v -1.15 h 1.73 v -1.71 h -1.77 v -1.66 c 0.7,-0.08 1.34,-0.16 1.94,-0.25 l -0.51,-1.55 c -1.55,0.22 -3.23,0.4 -5.06,0.54 a 15.33,15.33 0 0 1 0.3,1.58 l 1.61,-0.15 v 1.48 H 82.6 v 1.71 h 1.84 a 11.9,11.9 0 0 1 -2,3.36 z m 7.06,-7.93 -1.11,1.12 a 19.55,19.55 0 0 1 2.12,2 l 1.24,-1.22 Q 90.59,21.55 89.59,20.81 Z M 89.13,24.13 88,25.24 a 19.63,19.63 0 0 1 2.15,1.92 L 91.36,26 a 26.18,26.18 0 0 0 -2.27,-1.87 z m 27.41,-0.85 h -3.24 v 1.47 h 2.91 v 1.61 a 10.19,10.19 0 0 1 -2.36,3.43 14.38,14.38 0 0 0 3,1.25 c -0.43,0.76 -0.79,1.35 -1.07,1.8 a 14.6,14.6 0 0 1 -3.49,-1.84 16.94,16.94 0 0 1 -3.7,1.89 c -0.3,-0.49 -0.64,-1.07 -1,-1.72 a 17.58,17.58 0 0 0 3.23,-1.43 14.81,14.81 0 0 1 -2,-2.41 l 1.5,-0.89 a 9.55,9.55 0 0 0 2,2.26 7.15,7.15 0 0 0 1.82,-2.3 h -5.74 v -1.69 h 2.95 v -1.47 h -2.92 v -1.6 h 2.92 v -1.89 h 1.91 v 1.89 h 3.24 v 1.59 z M 103.8,22.13 v 1.72 h 1.48 v 2.34 l -1.62,0.3 0.18,1.9 1.43,-0.37 v 2.38 a 0.76,0.76 0 0 1 -0.13,0.5 0.6,0.6 0 0 1 -0.48,0.15 h -0.89 c 0.21,0.76 0.36,1.36 0.45,1.8 a 3.77,3.77 0 0 0 2.33,-0.44 1.77,1.77 0 0 0 0.43,-1.3 v -3.55 l 1.14,-0.28 c 0,-0.4 0,-1 0.05,-1.74 l -1.19,0.26 v -2 h 1.13 v -1.72 h -1.13 v -2.33 h -1.71 v 2.33 z m 28.43,-2.41 c 0.23,0.42 0.45,0.86 0.67,1.32 h 4.31 v 1.14 h -4.43 v 0.7 h 4 v 1.02 h -4 v 0.7 h 4 v 1.07 h -4 v 0.7 h 4.61 v 1.17 h -9.41 V 28 h -1.78 v -3.83 c -0.24,0.23 -0.48,0.45 -0.74,0.67 a 15.84,15.84 0 0 0 -0.74,-1.94 9.81,9.81 0 0 0 2.63,-3.15 l 1.84,0.39 c -0.15,0.29 -0.3,0.57 -0.47,0.85 H 131 c -0.16,-0.36 -0.33,-0.7 -0.5,-1 l 1.71,-0.3 z m -4.24,2.49 v 0.68 h 3 v -0.7 h -3 z m 0,2.44 h 3 v -0.7 h -3 z m 0,1.77 h 3 v -0.7 h -3 z m 2.47,1.46 v 0.61 H 125 v 1.27 h 3.78 a 15.88,15.88 0 0 1 -4.07,1.51 11.12,11.12 0 0 1 0.92,1.54 13.93,13.93 0 0 0 4.8,-2.55 v 2.6 h 1.76 v -2.77 a 10.59,10.59 0 0 0 4.81,2.54 c 0.24,-0.45 0.54,-1 0.93,-1.58 a 12.75,12.75 0 0 1 -4.07,-1.34 h 3.89 v -1.28 h -5.55 v -0.61 z m 16,5 V 20.29 h 12 v 12.52 h -1.7 v -0.42 h -8.58 v 0.43 z m 10.28,-11.2 h -8.58 v 9.44 h 8.58 v -9.5 z m -8.19,5.54 0.11,0.85 6.75,-0.17 0.41,0.39 0.89,-0.61 -1.11,-1 h 0.4 v -3.17 h -2.9 V 23.1 h 3.05 v -0.92 h -3.05 v -0.37 h -1.34 v 0.37 h -3.1 v 0.92 h 3.1 v 0.41 h -2.86 v 3.41 h 1.38 v -0.33 h 1.48 v 0.55 z m 0,1.18 v 0.92 h 1.3 l -0.46,0.41 c 0.5,0.36 1,0.72 1.4,1.07 l 0.91,-0.82 -1,-0.66 h 3.11 v 0.14 c 0,0.29 -0.18,0.44 -0.52,0.44 H 152 c 0.13,0.47 0.22,0.82 0.27,1 h 1.68 c 0.82,-0.07 1.22,-0.46 1.22,-1.18 v -0.4 h 1.15 V 28.4 h -1.15 V 28 h -1.39 v 0.35 z m 6.14,-1.25 a 2.56,2.56 0 0 1 -0.24,-0.24 l 0.45,-0.26 h -1.8 v 0.53 h 1.54 z m 0,-1.22 v -0.46 h -1.59 v 0.46 z m -4.34,0 h 1.48 v -0.46 h -1.48 z m 4.34,-1.59 h -1.59 v 0.44 h 1.52 v -0.44 z m -4.34,0.44 h 1.48 v -0.44 h -1.48 z M 1.52,4.62 h 8.89 v 8.36 H 20 v -2.12 h 9.05 v 2.12 h 0.26 v 8.84 h -0.26 v 9.31 H 20 V 21.82 H 10.41 V 31.86 H 1.52 Z"
           fill="#ffffff"
           id="path2101" />
      </g>
    </clipPath>
    <clipPath
       clipPathUnits="userSpaceOnUse"
       id="clipPath2137">
      <rect
         style="opacity:0.99;fill:none;fill-opacity:1;stroke-width:3.77953;stroke-linejoin:round"
         id="rect2139"
         width="126.34615"
         height="20.048077"
         x="37.067307"
         y="18.317308" />
    </clipPath>
    <clipPath
       clipPathUnits="userSpaceOnUse"
       id="clipPath2133">
      <rect
         style="opacity:0.99;fill:none;fill-opacity:1;stroke-width:3.77953;stroke-linejoin:round"
         id="rect2135"
         width="126.34615"
         height="20.048077"
         x="37.067307"
         y="18.317308" />
    </clipPath>
    <clipPath
       clipPathUnits="userSpaceOnUse"
       id="clipPath2129">
      <rect
         style="opacity:0.99;fill:none;fill-opacity:1;stroke-width:3.77953;stroke-linejoin:round"
         id="rect2131"
         width="126.34615"
         height="20.048077"
         x="37.067307"
         y="18.317308" />
    </clipPath>
    <clipPath
       clipPathUnits="userSpaceOnUse"
       id="clipPath2125">
      <rect
         style="opacity:0.99;fill:none;fill-opacity:1;stroke-width:3.77953;stroke-linejoin:round"
         id="rect2127"
         width="126.34615"
         height="20.048077"
         x="37.067307"
         y="18.317308" />
    </clipPath>
    <clipPath
       clipPathUnits="userSpaceOnUse"
       id="clipPath2121">
      <rect
         style="opacity:0.99;fill:none;fill-opacity:1;stroke-width:3.77953;stroke-linejoin:round"
         id="rect2123"
         width="126.34615"
         height="20.048077"
         x="37.067307"
         y="18.317308" />
    </clipPath>
  </defs>
  <sodipodi:namedview
     inkscape:current-layer="svg1500"
     inkscape:window-maximized="1"
     inkscape:window-y="-8"
     inkscape:window-x="-8"
     inkscape:cy="-23.262052"
     inkscape:cx="104.69773"
     inkscape:zoom="4.902607"
     showgrid="false"
     id="namedview1502"
     inkscape:window-height="1017"
     inkscape:window-width="1920"
     inkscape:pageshadow="2"
     inkscape:pageopacity="0"
     guidetolerance="10"
     gridtolerance="10"
     objecttolerance="10"
     borderopacity="1"
     bordercolor="#666666"
     pagecolor="#ffffff" />
  <path
     id="path1492"
     fill="#e83535"
     d="m 33.25,0.83 h -0.16 v 3.52 h 0.16 z M 33.09,5 V 4.7 a 0.36,0.36 0 0 0 0.16,0.09 v 0.28 z m 0,-4.49 v -0.3 l 0.16,-0.07 v 0.3 z M 34.27,0 a 2.58,2.58 0 0 1 2.5,2.59 2.58,2.58 0 0 1 -2.5,2.61 V 4.93 A 2.27,2.27 0 0 0 35.71,4.35 H 35.25 V 4.28 3.38 A 0.48,0.48 0 0 0 35,2.92 0.88,0.88 0 0 0 34.56,2.85 H 34.37 V 2.43 h 0.19 c 0.25,0 0.44,0 0.58,-0.14 C 35.28,2.15 35.3,2.08 35.3,1.8 35.3,1.52 35.21,1.39 35.02,1.34 34.83,1.29 34.81,1.24 34.65,1.24 H 34.37 V 0.83 h 0.28 a 1.85,1.85 0 0 1 0.65,0.1 0.9,0.9 0 0 1 0.51,0.88 0.59,0.59 0 0 1 -0.14,0.49 0.75,0.75 0 0 1 -0.37,0.34 0.63,0.63 0 0 1 0.3,0.21 0.86,0.86 0 0 1 0.14,0.46 V 3.75 A 3,3 0 0 0 35.81,4.1 0.21,0.21 0 0 0 35.9,4.28 2.47,2.47 0 0 0 36.6,2.59 2.32,2.32 0 0 0 34.27,0.28 Z M 33.6,0.35 a 1.49,1.49 0 0 1 0.53,-0.07 h 0.14 V 0 H 34.13 A 1.48,1.48 0 0 0 33.6,0.07 Z m 0,4.79 a 1.54,1.54 0 0 0 0.53,0.07 h 0.14 V 4.93 a 0.47,0.47 0 0 1 -0.14,0 1.49,1.49 0 0 1 -0.53,-0.07 v 0.23 z m 0,-2.29 h 0.67 V 2.43 H 33.6 Z M 33.25,0.44 A 1.91,1.91 0 0 1 33.6,0.35 V 0.07 a 0.94,0.94 0 0 0 -0.34,0.07 v 0.3 z m 0,3.91 V 0.83 h 0.34 v 0.42 h -0.23 v 1.18 h 0.23 v 0.42 h -0.23 v 1.5 z m 0,0.72 a 0.9,0.9 0 0 0 0.34,0.07 V 4.91 L 33.25,4.79 Z m 1,-4.24 H 33.6 v 0.42 h 0.67 V 0.83 Z m -1.18,0 V 4.35 H 32.9 V 0.83 Z m 0,-0.62 v 0.3 a 2.31,2.31 0 0 0 -1.3,2.08 2.32,2.32 0 0 0 1.3,2.11 V 5 A 2.63,2.63 0 0 1 31.5,2.59 2.59,2.59 0 0 1 33.09,0.21 Z M 30.36,32.79 H 18.24 l -0.1,-9 H 15.2 v -3 h 3.12 a 3.05,3.05 0 0 1 3,2.89 v 6.08 h 6 V 19.37 A 5.15,5.15 0 0 0 22.76,14.72 H 15.2 v -3 h 3.05 v -9 h 12.11 z m -15.16,-9 v -3 h -3 a 3.12,3.12 0 0 0 -3.06,2.89 v 6.15 H 3.08 V 5.67 h 6.06 v 9 h 6.06 v -3 h -3 v -9 H 0 v 30.2 h 12.17 v -9.11 z"
     style="fill-rule:evenodd" />
  <path
     id="path1494"
     fill="#ffffff"
     d="m 162.83,3.19 h -0.6 v 0.37 h 0.6 z m -0.9,3.7 V 6.64 a 2.2,2.2 0 0 0 0.3,0.11 V 7 a 1.79,1.79 0 0 1 -0.3,-0.07 z m 0,-0.62 V 3.19 h 0.3 V 3.56 H 162 v 1 h 0.2 V 5 H 162 v 1.27 z m 0,-3.42 V 2.59 a 2.41,2.41 0 0 1 0.3,-0.07 v 0.25 a 2.5,2.5 0 0 0 -0.3,0.09 z m 0.3,2.1 h 0.6 V 4.6 h -0.6 V 5 Z m 0,2 A 1.58,1.58 0 0 0 162.7,7 h 0.12 V 6.77 c 0,0 -0.09,0.05 -0.12,0.05 A 1.51,1.51 0 0 1 162.23,6.75 V 7 Z m 0,-4.2 a 1.64,1.64 0 0 1 0.47,0 h 0.12 V 2.46 h -0.12 a 1.45,1.45 0 0 0 -0.47,0.06 v 0.25 z m 0.6,-0.3 a 2.28,2.28 0 0 1 0,4.55 V 6.77 a 2,2 0 0 0 1.25,-0.49 h -0.4 c -0.06,0 -0.06,-0.05 -0.06,-0.07 V 5.43 a 0.41,0.41 0 0 0 -0.23,-0.4 c 0,-0.05 -0.18,-0.07 -0.37,-0.07 h -0.16 V 4.6 H 163 a 0.71,0.71 0 0 0 0.49,-0.13 c 0.11,-0.05 0.14,-0.19 0.14,-0.42 0,-0.23 -0.07,-0.37 -0.24,-0.43 -0.17,-0.06 -0.18,-0.07 -0.32,-0.07 h -0.23 V 3.19 h 0.23 a 1.65,1.65 0 0 1 0.56,0.09 0.8,0.8 0 0 1 0.46,0.76 0.58,0.58 0 0 1 -0.12,0.44 0.7,0.7 0 0 1 -0.34,0.3 0.55,0.55 0 0 1 0.27,0.18 0.72,0.72 0 0 1 0.12,0.4 v 0.39 c 0,0.12 0.05,0.23 0.05,0.3 a 0.29,0.29 0 0 0 0.08,0.16 2.15,2.15 0 0 0 0.63,-1.48 2,2 0 0 0 -1.94,-2 V 2.46 Z m -0.9,0.13 a 2.26,2.26 0 0 0 -1.52,2.14 2.29,2.29 0 0 0 1.52,2.17 V 6.64 a 2,2 0 0 1 -1.27,-1.92 2,2 0 0 1 1.27,-1.87 V 2.59 Z m 0,0.6 h -0.3 v 3.09 h 0.3 V 3.19 Z M 53.24,8.68 v 2.24 h -7.5 a 1,1 0 0 0 -1,1 v 4 h -4.4 V 7.37 A 4.24,4.24 0 0 1 44.39,3 h 9.49 v 2.82 h -8.74 a 0.44,0.44 0 0 0 -0.42,0.46 v 1.94 a 0.45,0.45 0 0 0 0.42,0.46 z m 105.12,7.25 V 7.3 A 4.53,4.53 0 0 0 154,2.9 h -11.65 v 13 h 4.37 V 6.21 a 0.44,0.44 0 0 1 0.42,-0.43 h 6.43 a 0.44,0.44 0 0 1 0.42,0.43 v 9.72 z M 114.1,16 v -2.88 h 3.09 a 0.47,0.47 0 0 0 0.5,-0.44 V 6.24 A 0.47,0.47 0 0 0 117.21,5.82 H 114.1 V 3 h 3.69 a 4.27,4.27 0 0 1 4.42,4.41 v 4.16 A 4.36,4.36 0 0 1 117.72,16 Z m 26.16,0 V 7.32 A 4.52,4.52 0 0 0 135.85,3 h -11.6 v 13 h 4.39 V 6.24 a 0.42,0.42 0 0 1 0.42,-0.42 h 6.4 a 0.4,0.4 0 0 1 0.39,0.42 V 16 Z M 114.1,3 h -3.17 a 4.64,4.64 0 0 0 -4.84,4.41 v 4.16 a 4.64,4.64 0 0 0 4.84,4.41 h 3.17 V 13.12 H 111 a 0.47,0.47 0 0 1 -0.48,-0.43 V 6.24 A 0.45,0.45 0 0 1 111,5.82 h 3.14 V 3 Z M 63.83,16 v -2.88 h 3.09 a 0.47,0.47 0 0 0 0.49,-0.44 V 6.24 A 0.46,0.46 0 0 0 67,5.79 H 63.83 V 3 h 3.69 a 4.28,4.28 0 0 1 4.41,4.41 v 4.16 A 4.36,4.36 0 0 1 67.46,16 Z m 40.38,0 H 95 A 4.38,4.38 0 0 1 90.65,11.57 V 7.39 A 4.37,4.37 0 0 1 95,3 h 9.21 v 2.82 h -8.72 a 0.45,0.45 0 0 0 -0.44,0.46 v 6.4 a 0.44,0.44 0 0 0 0.44,0.44 h 8.73 V 16 Z M 82.28,13.6 84.36,16 h 5.18 l -4.81,-5.54 a 1.4,1.4 0 0 1 0,-2 L 89.51,2.94 H 84.3 l -2,2.38 a 1.4,1.4 0 0 1 -2,0 L 78.22,2.94 h -5.15 l 4.78,5.51 a 1.4,1.4 0 0 1 0,2 L 73.08,16 h 5.15 l 2,-2.38 a 1.41,1.41 0 0 1 2,0 z M 63.83,3 h -3.17 a 4.66,4.66 0 0 0 -4.84,4.43 v 4.14 A 4.67,4.67 0 0 0 60.66,16 h 3.17 V 13.12 H 60.7 A 0.47,0.47 0 0 1 60.23,12.68 V 6.27 A 0.46,0.46 0 0 1 60.7,5.81 h 3.14 z"
     style="fill-rule:evenodd;fill:#0053a6;fill-opacity:1" />
  <rect
     y="17.451923"
     x="35.91346"
     height="15.144231"
     width="124.90385"
     id="rect2115"
     style="opacity:0.99;fill:none;fill-opacity:1;stroke-width:3.77953;stroke-linejoin:round" />
  <rect
     y="18.317308"
     x="37.067307"
     height="14.278846"
     width="123.75"
     id="rect2117"
     style="opacity:0.99;fill:none;fill-opacity:1;stroke-width:3.77953;stroke-linejoin:round" />
  <rect
     y="18.317308"
     x="37.067307"
     height="20.048077"
     width="126.34615"
     id="rect2119"
     style="opacity:0.99;fill:none;fill-opacity:1;stroke-width:3.77953;stroke-linejoin:round" />
  <path
     id="path1490-8"
     fill="#ffffff"
     d="m 51.12,28.84 c 0.14,0.39 0.29,0.8 0.44,1.24 v -1.56 h -3.33 v 0.33 H 46.66 V 20.72 H 48 c 0.14,-0.42 0.25,-0.76 0.33,-1 l 2,0.06 c -0.12,0.24 -0.28,0.57 -0.49,1 h 2.72 v 4.62 h -4.33 v 0.44 h 5.21 v 1.14 h -5.21 v 0.44 h 4.9 C 53.07,28.86 53,30 53,30.83 c -0.14,1.32 -0.66,2 -1.55,2 H 49.93 C 49.82,32.25 49.71,31.77 49.6,31.38 h 1.3 c 0.47,0 0.58,-0.28 0.62,-0.85 l -0.64,0.17 c -0.15,-0.61 -0.33,-1.18 -0.51,-1.72 l 0.74,-0.16 z m -5.34,3.4 1.26,0.18 c 0.14,-0.94 0.28,-2 0.43,-3.3 l -1,-0.12 c 0,-0.39 -0.09,-0.86 -0.13,-1.42 l -0.91,0.33 V 23 h 1 V 21.51 H 43.09 V 23 h 0.84 v 5.41 l -1.26,0.44 0.53,1.6 c 0.95,-0.39 2,-0.8 3.13,-1.21 -0.17,1.06 -0.35,2 -0.56,3 z m -4.53,-5.36 1.45,0.61 q -0.46,3 -0.78,5.3 l -1.55,-0.54 q 0.49,-2.34 0.88,-5.36 z m 0.09,-3.5 c 0.8,0.76 1.36,1.31 1.68,1.67 l -1.3,1.2 Q 41.16,25.56 40.2,24.53 Z m 0.17,-3.54 c 0.67,0.64 1.17,1.16 1.53,1.56 l -1.29,1.11 c -0.24,-0.3 -0.71,-0.85 -1.39,-1.65 l 1.15,-1 z m 7.35,9.27 h -1 v 2.9 L 49,32 c 0,-0.83 -0.08,-1.8 -0.15,-2.9 z M 51,24.21 v -0.74 h -2.77 v 0.74 z m 0,-2.37 h -2.77 v 0.74 H 51 Z m -1.8,7.28 q 0.13,0.85 0.28,2 l 0.93,-0.13 A 20.27,20.27 0 0 0 50,29 l -0.83,0.11 z m 15.15,-2.85 h 1.2 l 0.21,-2.12 -0.62,0.65 c -0.29,-0.4 -0.65,-0.87 -1.1,-1.39 a 13.54,13.54 0 0 0 2.68,-3.67 l 1.85,0.23 c -0.12,0.26 -0.25,0.52 -0.39,0.77 h 6.06 v 1.42 h -6.9 c -0.21,0.3 -0.42,0.6 -0.65,0.89 h 6.85 l -0.05,3.22 h 1.06 v 1.37 h -1.1 v 1.81 h 1 v 1.36 h -1 a 2.08,2.08 0 0 1 -0.43,1.4 1.81,1.81 0 0 1 -1.1,0.46 c -0.48,0.05 -1.44,0.09 -2.87,0.11 -0.12,-0.47 -0.25,-0.93 -0.39,-1.4 h 2 a 2.65,2.65 0 0 0 0.7,-0.08 c 0.2,-0.05 0.31,-0.24 0.32,-0.54 h -6.55 l 0.31,-3.17 h -1.08 v -1.32 z m 6.46,-0.85 -0.86,0.85 H 71.7 V 24.4 h -2.38 l 1.5,1 z m -2.69,-0.27 0.81,-0.76 h -1.44 l -0.19,1.87 h 2.26 z m 0,3.25 0.84,-0.77 H 67.17 L 67,29.45 h 2.47 c -0.47,-0.37 -0.94,-0.72 -1.38,-1 z m 2.71,0.25 -0.81,0.79 h 1.66 v -1.81 h -2.41 l 1.52,1 z M 62.91,19.76 61.73,21 q 1.13,0.92 2,1.82 L 65,21.47 c -0.73,-0.63 -1.45,-1.19 -2.13,-1.7 z m -0.41,3.53 -1.08,1.26 Q 63,26 63.36,26.4 l 1.2,-1.4 c -0.72,-0.63 -1.42,-1.19 -2.1,-1.67 z m 0.46,4 c -0.39,1.87 -0.82,3.53 -1.27,5 0.59,0.16 1.17,0.34 1.75,0.54 q 0.63,-2.67 1.23,-4.91 A 15.92,15.92 0 0 1 62.96,27.3 Z m 24.66,1 4.31,-0.39 v -8.13 h 1.87 v 7.91 l 1.81,-0.17 0.15,1.68 -2,0.18 v 3.43 h -1.87 v -3.25 l -4.08,0.37 -0.23,-1.67 z m -5.1,0.4 q 0.38,1.25 0.61,2.12 a 17,17 0 0 0 1.4,-2.44 v 4.48 h 1.72 v -5.76 c 0.33,0.35 0.71,0.78 1.14,1.29 l 1.11,-1 c -0.44,-0.46 -1,-1 -1.61,-1.54 l -0.64,0.6 v -1.15 h 1.73 v -1.71 h -1.77 v -1.66 c 0.7,-0.08 1.34,-0.16 1.94,-0.25 l -0.51,-1.55 c -1.55,0.22 -3.23,0.4 -5.06,0.54 a 15.33,15.33 0 0 1 0.3,1.58 l 1.61,-0.15 v 1.48 H 82.6 v 1.71 h 1.84 a 11.9,11.9 0 0 1 -2,3.36 z m 7.06,-7.93 -1.11,1.12 a 19.55,19.55 0 0 1 2.12,2 l 1.24,-1.22 Q 90.59,21.55 89.59,20.81 Z M 89.13,24.13 88,25.24 a 19.63,19.63 0 0 1 2.15,1.92 L 91.36,26 a 26.18,26.18 0 0 0 -2.27,-1.87 z m 27.41,-0.85 h -3.24 v 1.47 h 2.91 v 1.61 a 10.19,10.19 0 0 1 -2.36,3.43 14.38,14.38 0 0 0 3,1.25 c -0.43,0.76 -0.79,1.35 -1.07,1.8 a 14.6,14.6 0 0 1 -3.49,-1.84 16.94,16.94 0 0 1 -3.7,1.89 c -0.3,-0.49 -0.64,-1.07 -1,-1.72 a 17.58,17.58 0 0 0 3.23,-1.43 14.81,14.81 0 0 1 -2,-2.41 l 1.5,-0.89 a 9.55,9.55 0 0 0 2,2.26 7.15,7.15 0 0 0 1.82,-2.3 h -5.74 v -1.69 h 2.95 v -1.47 h -2.92 v -1.6 h 2.92 v -1.89 h 1.91 v 1.89 h 3.24 v 1.59 z M 103.8,22.13 v 1.72 h 1.48 v 2.34 l -1.62,0.3 0.18,1.9 1.43,-0.37 v 2.38 a 0.76,0.76 0 0 1 -0.13,0.5 0.6,0.6 0 0 1 -0.48,0.15 h -0.89 c 0.21,0.76 0.36,1.36 0.45,1.8 a 3.77,3.77 0 0 0 2.33,-0.44 1.77,1.77 0 0 0 0.43,-1.3 v -3.55 l 1.14,-0.28 c 0,-0.4 0,-1 0.05,-1.74 l -1.19,0.26 v -2 h 1.13 v -1.72 h -1.13 v -2.33 h -1.71 v 2.33 z m 28.43,-2.41 c 0.23,0.42 0.45,0.86 0.67,1.32 h 4.31 v 1.14 h -4.43 v 0.7 h 4 v 1.02 h -4 v 0.7 h 4 v 1.07 h -4 v 0.7 h 4.61 v 1.17 h -9.41 V 28 h -1.78 v -3.83 c -0.24,0.23 -0.48,0.45 -0.74,0.67 a 15.84,15.84 0 0 0 -0.74,-1.94 9.81,9.81 0 0 0 2.63,-3.15 l 1.84,0.39 c -0.15,0.29 -0.3,0.57 -0.47,0.85 H 131 c -0.16,-0.36 -0.33,-0.7 -0.5,-1 l 1.71,-0.3 z m -4.24,2.49 v 0.68 h 3 v -0.7 h -3 z m 0,2.44 h 3 v -0.7 h -3 z m 0,1.77 h 3 v -0.7 h -3 z m 2.47,1.46 v 0.61 H 125 v 1.27 h 3.78 a 15.88,15.88 0 0 1 -4.07,1.51 11.12,11.12 0 0 1 0.92,1.54 13.93,13.93 0 0 0 4.8,-2.55 v 2.6 h 1.76 v -2.77 a 10.59,10.59 0 0 0 4.81,2.54 c 0.24,-0.45 0.54,-1 0.93,-1.58 a 12.75,12.75 0 0 1 -4.07,-1.34 h 3.89 v -1.28 h -5.55 v -0.61 z m 16,5 V 20.29 h 12 v 12.52 h -1.7 v -0.42 h -8.58 v 0.43 z m 10.28,-11.2 h -8.58 v 9.44 h 8.58 v -9.5 z m -8.19,5.54 0.11,0.85 6.75,-0.17 0.41,0.39 0.89,-0.61 -1.11,-1 h 0.4 v -3.17 h -2.9 V 23.1 h 3.05 v -0.92 h -3.05 v -0.37 h -1.34 v 0.37 h -3.1 v 0.92 h 3.1 v 0.41 h -2.86 v 3.41 h 1.38 v -0.33 h 1.48 v 0.55 z m 0,1.18 v 0.92 h 1.3 l -0.46,0.41 c 0.5,0.36 1,0.72 1.4,1.07 l 0.91,-0.82 -1,-0.66 h 3.11 v 0.14 c 0,0.29 -0.18,0.44 -0.52,0.44 H 152 c 0.13,0.47 0.22,0.82 0.27,1 h 1.68 c 0.82,-0.07 1.22,-0.46 1.22,-1.18 v -0.4 h 1.15 V 28.4 h -1.15 V 28 h -1.39 v 0.35 z m 6.14,-1.25 a 2.56,2.56 0 0 1 -0.24,-0.24 l 0.45,-0.26 h -1.8 v 0.53 h 1.54 z m 0,-1.22 v -0.46 h -1.59 v 0.46 z m -4.34,0 h 1.48 v -0.46 h -1.48 z m 4.34,-1.59 h -1.59 v 0.44 h 1.52 v -0.44 z m -4.34,0.44 h 1.48 v -0.44 h -1.48 z M 1.52,4.62 h 8.89 v 8.36 H 20 v -2.12 h 9.05 v 2.12 h 0.26 v 8.84 h -0.26 v 9.31 H 20 V 21.82 H 10.41 V 31.86 H 1.52 Z"
     style="fill:#0d0909;fill-opacity:1;fill-rule:evenodd"
     clip-path="url(#clipPath2137)" />
  <path
     transform="translate(-10.961537,1.6559612)"
     style="fill-rule:evenodd"
     d="m 33.25,0.83 h -0.16 v 3.52 h 0.16 z M 33.09,5 V 4.7 a 0.36,0.36 0 0 0 0.16,0.09 v 0.28 z m 0,-4.49 v -0.3 l 0.16,-0.07 v 0.3 z M 34.27,0 a 2.58,2.58 0 0 1 2.5,2.59 2.58,2.58 0 0 1 -2.5,2.61 V 4.93 A 2.27,2.27 0 0 0 35.71,4.35 H 35.25 V 4.28 3.38 A 0.48,0.48 0 0 0 35,2.92 0.88,0.88 0 0 0 34.56,2.85 H 34.37 V 2.43 h 0.19 c 0.25,0 0.44,0 0.58,-0.14 C 35.28,2.15 35.3,2.08 35.3,1.8 35.3,1.52 35.21,1.39 35.02,1.34 34.83,1.29 34.81,1.24 34.65,1.24 H 34.37 V 0.83 h 0.28 a 1.85,1.85 0 0 1 0.65,0.1 0.9,0.9 0 0 1 0.51,0.88 0.59,0.59 0 0 1 -0.14,0.49 0.75,0.75 0 0 1 -0.37,0.34 0.63,0.63 0 0 1 0.3,0.21 0.86,0.86 0 0 1 0.14,0.46 V 3.75 A 3,3 0 0 0 35.81,4.1 0.21,0.21 0 0 0 35.9,4.28 2.47,2.47 0 0 0 36.6,2.59 2.32,2.32 0 0 0 34.27,0.28 Z M 33.6,0.35 a 1.49,1.49 0 0 1 0.53,-0.07 h 0.14 V 0 H 34.13 A 1.48,1.48 0 0 0 33.6,0.07 Z m 0,4.79 a 1.54,1.54 0 0 0 0.53,0.07 h 0.14 V 4.93 a 0.47,0.47 0 0 1 -0.14,0 1.49,1.49 0 0 1 -0.53,-0.07 v 0.23 z m 0,-2.29 h 0.67 V 2.43 H 33.6 Z M 33.25,0.44 A 1.91,1.91 0 0 1 33.6,0.35 V 0.07 a 0.94,0.94 0 0 0 -0.34,0.07 v 0.3 z m 0,3.91 V 0.83 h 0.34 v 0.42 h -0.23 v 1.18 h 0.23 v 0.42 h -0.23 v 1.5 z m 0,0.72 a 0.9,0.9 0 0 0 0.34,0.07 V 4.91 L 33.25,4.79 Z m 1,-4.24 H 33.6 v 0.42 h 0.67 V 0.83 Z m -1.18,0 V 4.35 H 32.9 V 0.83 Z m 0,-0.62 v 0.3 a 2.31,2.31 0 0 0 -1.3,2.08 2.32,2.32 0 0 0 1.3,2.11 V 5 A 2.63,2.63 0 0 1 31.5,2.59 2.59,2.59 0 0 1 33.09,0.21 Z M 30.36,32.79 H 18.24 l -0.1,-9 H 15.2 v -3 h 3.12 a 3.05,3.05 0 0 1 3,2.89 v 6.08 h 6 V 19.37 A 5.15,5.15 0 0 0 22.76,14.72 H 15.2 v -3 h 3.05 v -9 h 12.11 z m -15.16,-9 v -3 h -3 a 3.12,3.12 0 0 0 -3.06,2.89 v 6.15 H 3.08 V 5.67 h 6.06 v 9 h 6.06 v -3 h -3 v -9 H 0 v 30.2 h 12.17 v -9.11 z"
     fill="#e83535"
     id="path1492-1"
     clip-path="url(#clipPath2133)" />
  <path
     transform="translate(-10.961537,1.6559612)"
     style="fill:#0053a6;fill-opacity:1;fill-rule:evenodd"
     d="m 162.83,3.19 h -0.6 v 0.37 h 0.6 z m -0.9,3.7 V 6.64 a 2.2,2.2 0 0 0 0.3,0.11 V 7 a 1.79,1.79 0 0 1 -0.3,-0.07 z m 0,-0.62 V 3.19 h 0.3 V 3.56 H 162 v 1 h 0.2 V 5 H 162 v 1.27 z m 0,-3.42 V 2.59 a 2.41,2.41 0 0 1 0.3,-0.07 v 0.25 a 2.5,2.5 0 0 0 -0.3,0.09 z m 0.3,2.1 h 0.6 V 4.6 h -0.6 V 5 Z m 0,2 A 1.58,1.58 0 0 0 162.7,7 h 0.12 V 6.77 c 0,0 -0.09,0.05 -0.12,0.05 A 1.51,1.51 0 0 1 162.23,6.75 V 7 Z m 0,-4.2 a 1.64,1.64 0 0 1 0.47,0 h 0.12 V 2.46 h -0.12 a 1.45,1.45 0 0 0 -0.47,0.06 v 0.25 z m 0.6,-0.3 a 2.28,2.28 0 0 1 0,4.55 V 6.77 a 2,2 0 0 0 1.25,-0.49 h -0.4 c -0.06,0 -0.06,-0.05 -0.06,-0.07 V 5.43 a 0.41,0.41 0 0 0 -0.23,-0.4 c 0,-0.05 -0.18,-0.07 -0.37,-0.07 h -0.16 V 4.6 H 163 a 0.71,0.71 0 0 0 0.49,-0.13 c 0.11,-0.05 0.14,-0.19 0.14,-0.42 0,-0.23 -0.07,-0.37 -0.24,-0.43 -0.17,-0.06 -0.18,-0.07 -0.32,-0.07 h -0.23 V 3.19 h 0.23 a 1.65,1.65 0 0 1 0.56,0.09 0.8,0.8 0 0 1 0.46,0.76 0.58,0.58 0 0 1 -0.12,0.44 0.7,0.7 0 0 1 -0.34,0.3 0.55,0.55 0 0 1 0.27,0.18 0.72,0.72 0 0 1 0.12,0.4 v 0.39 c 0,0.12 0.05,0.23 0.05,0.3 a 0.29,0.29 0 0 0 0.08,0.16 2.15,2.15 0 0 0 0.63,-1.48 2,2 0 0 0 -1.94,-2 V 2.46 Z m -0.9,0.13 a 2.26,2.26 0 0 0 -1.52,2.14 2.29,2.29 0 0 0 1.52,2.17 V 6.64 a 2,2 0 0 1 -1.27,-1.92 2,2 0 0 1 1.27,-1.87 V 2.59 Z m 0,0.6 h -0.3 v 3.09 h 0.3 V 3.19 Z M 53.24,8.68 v 2.24 h -7.5 a 1,1 0 0 0 -1,1 v 4 h -4.4 V 7.37 A 4.24,4.24 0 0 1 44.39,3 h 9.49 v 2.82 h -8.74 a 0.44,0.44 0 0 0 -0.42,0.46 v 1.94 a 0.45,0.45 0 0 0 0.42,0.46 z m 105.12,7.25 V 7.3 A 4.53,4.53 0 0 0 154,2.9 h -11.65 v 13 h 4.37 V 6.21 a 0.44,0.44 0 0 1 0.42,-0.43 h 6.43 a 0.44,0.44 0 0 1 0.42,0.43 v 9.72 z M 114.1,16 v -2.88 h 3.09 a 0.47,0.47 0 0 0 0.5,-0.44 V 6.24 A 0.47,0.47 0 0 0 117.21,5.82 H 114.1 V 3 h 3.69 a 4.27,4.27 0 0 1 4.42,4.41 v 4.16 A 4.36,4.36 0 0 1 117.72,16 Z m 26.16,0 V 7.32 A 4.52,4.52 0 0 0 135.85,3 h -11.6 v 13 h 4.39 V 6.24 a 0.42,0.42 0 0 1 0.42,-0.42 h 6.4 a 0.4,0.4 0 0 1 0.39,0.42 V 16 Z M 114.1,3 h -3.17 a 4.64,4.64 0 0 0 -4.84,4.41 v 4.16 a 4.64,4.64 0 0 0 4.84,4.41 h 3.17 V 13.12 H 111 a 0.47,0.47 0 0 1 -0.48,-0.43 V 6.24 A 0.45,0.45 0 0 1 111,5.82 h 3.14 V 3 Z M 63.83,16 v -2.88 h 3.09 a 0.47,0.47 0 0 0 0.49,-0.44 V 6.24 A 0.46,0.46 0 0 0 67,5.79 H 63.83 V 3 h 3.69 a 4.28,4.28 0 0 1 4.41,4.41 v 4.16 A 4.36,4.36 0 0 1 67.46,16 Z m 40.38,0 H 95 A 4.38,4.38 0 0 1 90.65,11.57 V 7.39 A 4.37,4.37 0 0 1 95,3 h 9.21 v 2.82 h -8.72 a 0.45,0.45 0 0 0 -0.44,0.46 v 6.4 a 0.44,0.44 0 0 0 0.44,0.44 h 8.73 V 16 Z M 82.28,13.6 84.36,16 h 5.18 l -4.81,-5.54 a 1.4,1.4 0 0 1 0,-2 L 89.51,2.94 H 84.3 l -2,2.38 a 1.4,1.4 0 0 1 -2,0 L 78.22,2.94 h -5.15 l 4.78,5.51 a 1.4,1.4 0 0 1 0,2 L 73.08,16 h 5.15 l 2,-2.38 a 1.41,1.41 0 0 1 2,0 z M 63.83,3 h -3.17 a 4.66,4.66 0 0 0 -4.84,4.43 v 4.14 A 4.67,4.67 0 0 0 60.66,16 h 3.17 V 13.12 H 60.7 A 0.47,0.47 0 0 1 60.23,12.68 V 6.27 A 0.46,0.46 0 0 1 60.7,5.81 h 3.14 z"
     fill="#ffffff"
     id="path1494-0"
     clip-path="url(#clipPath2129)" />
  <rect
     transform="translate(-10.961537,1.6559612)"
     style="opacity:0.99;fill:none;fill-opacity:1;stroke-width:3.77953;stroke-linejoin:round"
     id="rect2115-6"
     width="124.90385"
     height="15.144231"
     x="35.91346"
     y="17.451923"
     clip-path="url(#clipPath2125)" />
  <rect
     transform="translate(-10.961537,1.6559612)"
     style="opacity:0.99;fill:none;fill-opacity:1;stroke-width:3.77953;stroke-linejoin:round"
     id="rect2117-2"
     width="123.75"
     height="14.278846"
     x="37.067307"
     y="18.317308"
     clip-path="url(#clipPath2121)" />
</svg>
